<svg width="24" height="24" viewBox="0 0 24 24" fill="none" xmlns="http://www.w3.org/2000/svg">
<path fill-rule="evenodd" clip-rule="evenodd" d="M15.1844 0.00070922C15.9853 0.00411744 16.5833 0.027091 16.8503 0.0645799C17.0796 0.0969588 17.4641 0.172797 17.7052 0.233295C17.9464 0.293793 18.3309 0.411363 18.5601 0.494441C18.7894 0.577518 19.1638 0.738123 19.3931 0.851876C19.6224 0.965625 19.9871 1.17231 20.2041 1.31162C20.4211 1.45094 20.7947 1.72489 21.0345 1.92044C21.2738 2.116 21.5996 2.41983 21.7583 2.59579C21.9166 2.7713 22.1375 3.03027 22.2489 3.17086C22.3602 3.31146 22.5496 3.57993 22.6698 3.76739C22.7899 3.95485 22.9674 4.26166 23.0639 4.44912C23.1608 4.63659 23.3138 4.98162 23.4041 5.21593C23.4945 5.45024 23.6137 5.8145 23.6689 6.0254C23.7246 6.23628 23.8008 6.62442 23.8394 6.88814C23.8797 7.1689 23.9683 7.69644 23.9683 8.10799C23.9683 8.36622 23.9821 8.63922 23.9683 8.885V12.2625L21.7526 14.4542L24 16.6433V23.6045H21.4603V17.6639L19.9727 16.2149L18.5397 17.6327V23.6046H16V20.1451L12.1033 24L8 20.0124V23.6046H5.46032V17.5444L4.04278 16.1669L2.53968 17.6574V23.6045H0V16.6497L2.2469 14.4217L0.031746 12.269V8.885C0.031746 8.5388 0.0317464 8.32869 0.031746 8.07047C0.0317466 7.65891 0.0607342 7.1689 0.101066 6.88814C0.139649 6.62441 0.215904 6.23628 0.271577 6.0254C0.326821 5.8145 0.446028 5.45024 0.536334 5.21593C0.62664 4.98162 0.779724 4.63659 0.876612 4.44912C0.97306 4.26166 1.15059 3.95485 1.27071 3.76739C1.39083 3.57993 1.58024 3.31146 1.69159 3.17086C1.80295 3.03026 2.02392 2.7713 2.18217 2.59579C2.34087 2.41983 2.66664 2.116 2.906 1.92044C3.14581 1.72489 3.51936 1.45093 3.73636 1.31162C3.95338 1.17231 4.31811 0.965621 4.54737 0.851876C4.77666 0.738123 5.15106 0.577515 5.38033 0.494441C5.60962 0.411363 5.99413 0.29379 6.23524 0.233295C6.47637 0.172798 6.86088 0.0969573 7.09015 0.0645799C7.35718 0.0270937 7.95518 0.0041173 8.75608 0.00070922C9.71164 -0.0031241 10.0186 0.00796161 10.0611 0.049275C10.0914 0.0791131 10.116 0.151137 10.1156 0.209916C10.1145 0.293141 9.66978 0.748314 8.09846 2.27619C6.9893 3.3541 6.08216 4.25052 6.08172 4.26799C6.08232 4.28545 7.05367 4.29957 8.24095 4.29872C10.3832 4.29744 10.401 4.29781 10.5754 4.47756L10.4728 4.76136C10.4163 4.91772 10.2918 5.20828 10.1958 5.40766C10.0998 5.60705 9.89717 5.95177 9.74504 6.17459C9.59335 6.39741 9.35266 6.70839 9.21106 6.86644C9.06946 7.02451 8.81523 7.27167 8.64645 7.41525C8.47767 7.55925 8.15239 7.79785 7.92312 7.94525C7.69384 8.09309 7.33911 8.2903 7.13393 8.38403C6.92878 8.47775 6.61317 8.60217 6.43254 8.66097C6.25149 8.71976 5.90642 8.80965 5.6653 8.86077C5.28334 8.94209 5.06812 8.95583 2.57143 8.98538V11.2466L4.02468 12.6589L6.0537 10.6472H17.8441L19.9588 12.7069L21.4286 11.2531V8.98611C18.8757 8.95606 18.6602 8.94273 18.2752 8.86077C18.0341 8.80965 17.689 8.71976 17.5079 8.66097C17.3273 8.60217 17.0117 8.47776 16.8065 8.38403C16.6014 8.2903 16.2466 8.09309 16.0174 7.94525C15.7881 7.79785 15.4628 7.55926 15.294 7.41525C15.1252 7.27168 14.871 7.02451 14.7294 6.86644C14.5878 6.70839 14.3471 6.39741 14.1954 6.17459C14.0433 5.95177 13.8407 5.60705 13.7447 5.40766C13.6487 5.20828 13.5242 4.91772 13.4676 4.76136L13.3651 4.47756C13.5395 4.29781 13.5572 4.29744 15.6995 4.29872C16.8868 4.29957 17.8582 4.28545 17.8588 4.26799C17.8583 4.25052 16.9512 3.35409 15.842 2.27619C14.2707 0.748309 13.826 0.293142 13.8249 0.209916C13.8245 0.151126 13.8491 0.0791027 13.8793 0.049275C13.9219 0.00796111 14.2288 -0.00312451 15.1844 0.00070922ZM5.82056 14.4041L12.0873 20.4941L18.1789 14.4677L16.7906 13.1152H7.12066L5.82056 14.4041Z" fill="white"/>
</svg>
