<svg width="32" height="32" viewBox="0 0 32 32" fill="none" xmlns="http://www.w3.org/2000/svg">
<path d="M21.1855 0C22.172 3.9573e-06 22.729 0.0229151 23.1357 0.0800781C23.4489 0.124092 23.9209 0.217323 24.1855 0.286133C24.4502 0.355451 24.8828 0.493133 25.1475 0.591797C25.4119 0.690933 25.8096 0.862846 26.0322 0.974609C26.2548 1.08587 26.6191 1.29105 26.8418 1.42969C27.0644 1.56832 27.3838 1.7875 27.5508 1.91602C27.7178 2.04458 28.0246 2.29895 28.2334 2.48145C28.4419 2.6646 28.8029 3.04112 29.0352 3.31738C29.2674 3.59415 29.5933 4.02494 29.7588 4.27539C29.9242 4.52586 30.1696 4.94732 30.3047 5.21191C30.4398 5.47659 30.6346 5.92011 30.7383 6.19824C30.842 6.47641 30.9792 6.90873 31.043 7.15918C31.1072 7.40953 31.1957 7.87041 31.2402 8.18359C31.2868 8.51698 31.3203 9.09917 31.3203 9.58789C31.3203 10.0466 31.2964 10.6447 31.2666 10.916C31.2373 11.1871 31.1553 11.6714 31.084 11.9912C31.0127 12.3109 30.8759 12.8008 30.7803 13.0791C30.6846 13.3574 30.4486 13.9043 30.2568 14.2939C30.0652 14.6833 29.7752 15.2065 29.6123 15.457C29.4489 15.7075 29.1309 16.1407 28.9053 16.4189C28.6796 16.6972 28.22 17.1976 27.2754 18.1387L28.3271 19.2012C28.9055 19.7856 29.539 20.4805 29.7363 20.7451C29.9331 21.0098 30.2104 21.4303 30.3516 21.6807C30.4922 21.9311 30.6983 22.3643 30.8096 22.6426C30.9209 22.9209 31.0693 23.3879 31.1396 23.6797C31.2094 23.9714 31.2905 24.3696 31.3184 24.5645C31.3462 24.7592 31.3696 25.0955 31.3711 25.7031H28.5879V25.3994C28.5879 25.2324 28.5555 24.9313 28.5166 24.7295C28.4777 24.5277 28.3868 24.1863 28.3145 23.9707C28.2421 23.7552 28.1119 23.4358 28.0244 23.2617C27.9374 23.0878 27.7744 22.8096 27.6631 22.6426C27.5518 22.4756 26.9912 21.8659 26.418 21.2881C25.8442 20.7103 25.3408 20.2378 25.2988 20.2373C25.2566 20.2376 24.9789 20.482 24.6807 20.7812C24.3831 21.0804 24.1394 21.3597 24.1387 21.4023C24.1392 21.4443 24.5105 21.8541 24.9639 22.3135C25.4175 22.7727 25.9303 23.3417 26.1055 23.5781C26.28 23.8143 26.516 24.1675 26.6299 24.3623C26.7437 24.5571 26.9329 24.9326 27.0498 25.1973C27.1667 25.4619 27.3212 25.8834 27.3936 26.1338C27.4659 26.3842 27.5596 26.7824 27.6016 27.0186C27.6436 27.2548 27.6948 27.6825 27.7529 28.4863L24.9697 28.4873L24.9326 28.0693C24.9124 27.8397 24.8417 27.4355 24.7754 27.1709C24.7091 26.9063 24.5598 26.4848 24.4424 26.2344C24.3255 25.9839 24.1232 25.6196 23.9932 25.4248C23.8631 25.23 23.415 24.7224 22.9971 24.2959C22.5436 23.8333 22.1871 23.5108 22.1113 23.4941C22.003 23.4709 21.909 23.543 21.4658 23.9902C21.0799 24.3802 20.9478 24.5465 20.9492 24.6406C20.9512 24.7327 21.1201 24.9386 21.5723 25.3994C21.9138 25.747 22.2973 26.169 22.4238 26.3359C22.5502 26.5028 22.7447 26.7867 22.8555 26.9678C22.9663 27.1489 23.126 27.4336 23.21 27.6006C23.2934 27.7676 23.425 28.064 23.5029 28.2588C23.5803 28.4536 23.6979 28.8068 23.7637 29.043C23.8289 29.2793 23.9151 29.6671 23.9551 29.9033C23.9945 30.1396 24.0405 30.5437 24.085 31.2686H21.3018L21.2715 30.9023C21.2548 30.7005 21.2108 30.3872 21.1738 30.2061C21.1369 30.0249 21.0563 29.7298 20.9951 29.5488C20.9334 29.3677 20.8037 29.06 20.7061 28.8652C20.6089 28.6705 20.437 28.375 20.3242 28.208C20.2114 28.041 19.8333 27.6132 18.8477 26.6104L16.0391 29.4219H15.332L12.5225 26.6104L11.8867 27.2568C11.5371 27.613 11.1598 28.041 11.0469 28.208C10.9341 28.3749 10.7622 28.6704 10.665 28.8652C10.5674 29.06 10.4377 29.3677 10.376 29.5488C10.3148 29.7299 10.2333 30.0249 10.1963 30.2061C10.1594 30.3871 10.1164 30.7001 10.0693 31.2686H7.28613L7.31445 30.8008C7.33014 30.5434 7.37657 30.1396 7.41602 29.9033C7.45597 29.6672 7.54119 29.2793 7.60645 29.043C7.67218 28.8068 7.78977 28.4537 7.86719 28.2588C7.94511 28.064 8.07765 27.7676 8.16113 27.6006C8.24515 27.4336 8.40387 27.1489 8.51465 26.9678C8.62545 26.7867 8.8208 26.5029 8.94727 26.3359C9.07375 26.169 9.45633 25.747 9.79785 25.3994C10.2502 24.9385 10.4199 24.7327 10.4219 24.6406C10.4233 24.5465 10.291 24.38 9.90527 23.9902C9.46241 23.5433 9.36793 23.4711 9.25977 23.4941C9.18437 23.5103 8.82691 23.8329 8.37305 24.2959C7.95538 24.7222 7.50816 25.2299 7.37793 25.4248C7.24794 25.6195 7.04561 25.9839 6.92871 26.2344C6.81132 26.4848 6.66101 26.9063 6.59473 27.1709C6.52847 27.4355 6.45754 27.8399 6.40039 28.4873L3.61816 28.4863L3.65527 27.9678C3.67603 27.6824 3.72657 27.2548 3.76855 27.0186C3.81054 26.7824 3.90424 26.3842 3.97656 26.1338C4.04892 25.8833 4.20441 25.4619 4.32129 25.1973C4.43817 24.9326 4.62641 24.5571 4.74023 24.3623C4.85408 24.1675 5.09009 23.8144 5.26465 23.5781C5.43973 23.3418 5.9534 22.7729 6.40723 22.3135C6.86058 21.8541 7.23094 21.4443 7.23145 21.4023C7.23073 21.3597 6.98801 21.0803 6.69043 20.7812C6.39191 20.4817 6.11278 20.2373 6.07129 20.2373C6.02688 20.2409 5.52495 20.7122 4.95312 21.2881C4.37985 21.8659 3.81932 22.4756 3.70801 22.6426C3.59675 22.8095 3.43371 23.0877 3.34668 23.2617C3.25915 23.4358 3.12802 23.7552 3.05566 23.9707C2.98333 24.1863 2.89245 24.5278 2.85352 24.7295C2.81458 24.9314 2.78321 25.2328 2.7832 25.7031H0L0.000976562 25.3115C0.00148254 25.096 0.0249056 24.7593 0.0527344 24.5645C0.0806054 24.3696 0.16071 23.9714 0.230469 23.6797C0.300781 23.3878 0.450218 22.9209 0.561523 22.6426C0.672839 22.3643 0.878869 21.9311 1.01953 21.6807C1.16072 21.4302 1.43797 21.0097 1.63477 20.7451C1.8321 20.4805 2.46548 19.7856 4.09473 18.1387L3.48535 17.5322C3.14999 17.1984 2.69156 16.6973 2.46582 16.4189C2.24015 16.1407 1.92222 15.7075 1.75879 15.457C1.59585 15.2065 1.30499 14.6834 1.11328 14.2939C0.921516 13.9043 0.68645 13.3574 0.59082 13.0791C0.495192 12.8008 0.358447 12.311 0.287109 11.9912C0.215776 11.6714 0.133833 11.1872 0.104492 10.916C0.0746512 10.6447 0.0507812 10.0467 0.0507812 9.58789C0.0507909 9.09917 0.0843161 8.51698 0.130859 8.18359C0.175407 7.87041 0.262922 7.40951 0.327148 7.15918C0.390911 6.90875 0.528616 6.47646 0.632812 6.19824C0.737044 5.91996 0.913569 5.50974 1.02539 5.28711C1.13672 5.06447 1.34185 4.70013 1.48047 4.47754C1.61904 4.25503 1.83731 3.93652 1.96582 3.76953C2.09434 3.60256 2.34957 3.2944 2.53223 3.08594C2.71544 2.87695 3.09197 2.51636 3.36816 2.28418C3.64494 2.05196 4.07582 1.72691 4.32617 1.56152C4.5765 1.39616 4.99707 1.15076 5.26172 1.01562C5.52635 0.880531 5.95901 0.689485 6.22363 0.59082C6.48818 0.492196 6.9317 0.353109 7.20996 0.28125C7.48825 0.209402 7.93264 0.118532 8.19727 0.0800781C8.5056 0.0355998 9.1954 0.00893471 10.1191 0.00488281C11.2222 0.000329074 11.5769 0.0134208 11.626 0.0625C11.6608 0.0980531 11.689 0.183256 11.6885 0.25293C11.6875 0.351594 11.1743 0.892114 9.36035 2.70703C8.08148 3.98588 7.03562 5.04963 7.0332 5.07227C7.0332 5.09301 8.1547 5.10941 9.52539 5.1084C11.9977 5.10688 12.0184 5.10778 12.2197 5.32129L12.1006 5.6582C12.0353 5.84391 11.892 6.18903 11.7812 6.42578C11.6704 6.66258 11.4363 7.07229 11.2607 7.33691C11.0857 7.60151 10.8079 7.97058 10.6445 8.1582C10.4812 8.34585 10.1879 8.63906 9.99316 8.80957C9.79836 8.98059 9.42283 9.26439 9.1582 9.43945C8.89358 9.61502 8.48386 9.84963 8.24707 9.96094C8.01026 10.0722 7.64583 10.2193 7.4375 10.2891C7.22857 10.3589 6.8309 10.4657 6.55273 10.5264C6.10697 10.624 5.85742 10.6399 2.88379 10.6758L2.88477 10.79C2.88488 10.8532 2.92886 11.0863 2.98242 11.3086C3.03608 11.5313 3.15222 11.9186 3.24023 12.1689C3.32837 12.4195 3.53485 12.8865 3.7002 13.2061C3.86567 13.5258 4.15318 14.003 4.33984 14.2666C4.527 14.5296 4.97617 15.0476 5.33789 15.4189C5.69846 15.7886 6.02802 16.0913 6.07129 16.0918C6.11278 16.0908 7.2175 15.0216 8.52539 13.7168C10.1015 12.1448 10.9809 11.3048 11.3594 11.1064H20.0117L20.2393 11.2256C20.3906 11.3051 21.2693 12.1454 22.8447 13.7168C24.1522 15.0212 25.2561 16.09 25.2988 16.0918C25.3408 16.0933 25.6705 15.7898 26.0322 15.4189C26.3939 15.0477 26.843 14.5298 27.0303 14.2666C27.217 14.003 27.5054 13.5258 27.6709 13.2061C27.8363 12.8864 28.0428 12.4195 28.1309 12.1689C28.2189 11.9185 28.335 11.5312 28.3887 11.3086C28.4423 11.086 28.4858 10.8524 28.4863 10.6758L26.9053 10.6562C25.513 10.6396 25.2641 10.624 24.8184 10.5264C24.5401 10.4657 24.1411 10.3589 23.9326 10.2891C23.7236 10.2192 23.3593 10.0722 23.123 9.96094C22.8869 9.84968 22.4775 9.615 22.2129 9.43945C21.9483 9.2644 21.5784 8.98667 21.3906 8.82324C21.2029 8.65981 20.9098 8.3657 20.7393 8.1709C20.5683 7.9761 20.2844 7.60146 20.1094 7.33691C19.9338 7.07235 19.7007 6.6626 19.5898 6.42578C19.479 6.189 19.335 5.84392 19.1514 5.32129L19.2529 5.21387C19.3529 5.10791 19.3753 5.10688 21.8457 5.1084C23.2163 5.10941 24.3379 5.09301 24.3379 5.07227C24.3366 5.05072 23.2894 3.98664 22.0098 2.70703C20.1959 0.892168 19.6827 0.351593 19.6816 0.25293C19.6811 0.18322 19.7084 0.0984902 19.7422 0.0634766C19.7887 0.0159153 20.1473 0 21.1855 0ZM10.2715 15.9746C9.11482 17.1363 8.16283 18.1211 8.15625 18.1631C8.15351 18.2109 9.75805 19.8697 11.8389 21.9717C15.0976 25.2628 15.5515 25.7031 15.6855 25.7031C15.8202 25.7022 16.276 25.2592 19.5312 21.9717C21.5616 19.9212 23.2233 18.2088 23.2256 18.1641C23.2256 18.1221 22.2739 17.1382 21.1123 15.9766L18.999 13.8643L12.374 13.8633L10.2715 15.9746Z" fill="white"/>
</svg>
