<svg width="123" height="28" viewBox="0 0 123 28" fill="none" xmlns="http://www.w3.org/2000/svg">
<path fill-rule="evenodd" clip-rule="evenodd" d="M15.1844 2.00071C15.9853 2.00412 16.5833 2.02709 16.8503 2.06458C17.0796 2.09696 17.4641 2.1728 17.7052 2.23329C17.9464 2.29379 18.3309 2.41136 18.5601 2.49444C18.7894 2.57752 19.1638 2.73812 19.3931 2.85188C19.6224 2.96562 19.9871 3.17231 20.2041 3.31162C20.4211 3.45094 20.7947 3.72489 21.0345 3.92044C21.2738 4.116 21.5996 4.41983 21.7583 4.59579C21.9166 4.7713 22.1375 5.03027 22.2489 5.17086C22.3602 5.31146 22.5496 5.57993 22.6698 5.76739C22.7899 5.95485 22.9674 6.26166 23.0639 6.44912C23.1608 6.63659 23.3138 6.98162 23.4041 7.21593C23.4945 7.45024 23.6137 7.8145 23.6689 8.0254C23.7246 8.23628 23.8008 8.62442 23.8394 8.88814C23.8797 9.1689 23.9683 9.69644 23.9683 10.108C23.9683 10.3662 23.9821 10.6392 23.9683 10.885V14.2625L21.7526 16.4542L24 18.6433V25.6045H21.4603V19.6639L19.9727 18.2149L18.5397 19.6327V25.6046H16V22.1451L12.1033 26L8 22.0124V25.6046H5.46032V19.5444L4.04278 18.1669L2.53968 19.6574V25.6045H0V18.6497L2.2469 16.4217L0.031746 14.269V10.885C0.031746 10.5388 0.0317464 10.3287 0.031746 10.0705C0.0317466 9.65891 0.0607342 9.1689 0.101066 8.88814C0.139649 8.62441 0.215904 8.23628 0.271577 8.0254C0.326821 7.8145 0.446028 7.45024 0.536334 7.21593C0.62664 6.98162 0.779724 6.63659 0.876612 6.44912C0.97306 6.26166 1.15059 5.95485 1.27071 5.76739C1.39083 5.57993 1.58024 5.31146 1.69159 5.17086C1.80295 5.03026 2.02392 4.7713 2.18217 4.59579C2.34087 4.41983 2.66664 4.116 2.906 3.92044C3.14581 3.72489 3.51936 3.45093 3.73636 3.31162C3.95338 3.17231 4.31811 2.96562 4.54737 2.85188C4.77666 2.73812 5.15106 2.57751 5.38033 2.49444C5.60962 2.41136 5.99413 2.29379 6.23524 2.23329C6.47637 2.1728 6.86088 2.09696 7.09015 2.06458C7.35718 2.02709 7.95518 2.00412 8.75608 2.00071C9.71164 1.99688 10.0186 2.00796 10.0611 2.04928C10.0914 2.07911 10.116 2.15114 10.1156 2.20992C10.1145 2.29314 9.66978 2.74831 8.09846 4.27619C6.9893 5.3541 6.08216 6.25052 6.08172 6.26799C6.08232 6.28545 7.05367 6.29957 8.24095 6.29872C10.3832 6.29744 10.401 6.29781 10.5754 6.47756L10.4728 6.76136C10.4163 6.91772 10.2918 7.20828 10.1958 7.40766C10.0998 7.60705 9.89717 7.95177 9.74504 8.17459C9.59335 8.39741 9.35266 8.70839 9.21106 8.86644C9.06946 9.02451 8.81523 9.27167 8.64645 9.41525C8.47767 9.55925 8.15239 9.79785 7.92312 9.94525C7.69384 10.0931 7.33911 10.2903 7.13393 10.384C6.92878 10.4778 6.61317 10.6022 6.43254 10.661C6.25149 10.7198 5.90642 10.8096 5.6653 10.8608C5.28334 10.9421 5.06812 10.9558 2.57143 10.9854V13.2466L4.02468 14.6589L6.0537 12.6472H17.8441L19.9588 14.7069L21.4286 13.2531V10.9861C18.8757 10.9561 18.6602 10.9427 18.2752 10.8608C18.0341 10.8096 17.689 10.7198 17.5079 10.661C17.3273 10.6022 17.0117 10.4778 16.8065 10.384C16.6014 10.2903 16.2466 10.0931 16.0174 9.94525C15.7881 9.79785 15.4628 9.55926 15.294 9.41525C15.1252 9.27168 14.871 9.02451 14.7294 8.86644C14.5878 8.70839 14.3471 8.39741 14.1954 8.17459C14.0433 7.95177 13.8407 7.60705 13.7447 7.40766C13.6487 7.20828 13.5242 6.91772 13.4676 6.76136L13.3651 6.47756C13.5395 6.29781 13.5572 6.29744 15.6995 6.29872C16.8868 6.29957 17.8582 6.28545 17.8588 6.26799C17.8583 6.25052 16.9512 5.35409 15.842 4.27619C14.2707 2.74831 13.826 2.29314 13.8249 2.20992C13.8245 2.15113 13.8491 2.0791 13.8793 2.04928C13.9219 2.00796 14.2288 1.99688 15.1844 2.00071ZM5.82056 16.4041L12.0873 22.4941L18.1789 16.4677L16.7906 15.1152H7.12066L5.82056 16.4041Z" fill="white"/>
<path d="M34.9838 19.0287C33.5019 17.5747 32.7609 15.7851 32.7609 13.66C32.7609 11.5349 33.5019 9.74532 34.9838 8.2913C36.4658 6.83728 38.2973 6.11027 40.4784 6.11027C42.0862 6.11027 43.4982 6.52271 44.7146 7.34759C45.9309 8.17246 46.8047 9.17909 47.336 10.3675L44.5678 11.437C44.2043 10.682 43.659 10.0669 42.932 9.59153C42.219 9.1022 41.4011 8.85753 40.4784 8.85753C39.1781 8.85753 38.0806 9.3189 37.1858 10.2416C36.305 11.1644 35.8646 12.3038 35.8646 13.66C35.8646 15.0161 36.305 16.1556 37.1858 17.0783C38.0806 18.0011 39.1781 18.4625 40.4784 18.4625C41.4011 18.4625 42.219 18.2248 42.932 17.7494C43.659 17.2601 44.2043 16.6379 44.5678 15.883L47.336 16.9525C46.8047 18.1409 45.9309 19.1475 44.7146 19.9724C43.4982 20.7973 42.0862 21.2097 40.4784 21.2097C38.2973 21.2097 36.4658 20.4827 34.9838 19.0287ZM52.0063 21H49.1751V5.48113H52.0063V21ZM58.8045 9.96902C60.1746 9.96902 61.2861 10.3255 62.1389 11.0386C62.9918 11.7516 63.4182 12.7932 63.4182 14.1633V21H60.587V18.3157C59.9858 20.245 58.7415 21.2097 56.8541 21.2097C55.9733 21.2097 55.2183 20.9231 54.5892 20.3499C53.9601 19.7767 53.6455 19.0287 53.6455 18.1059C53.6455 16.0787 55.0366 14.9183 57.8188 14.6247L59.5804 14.4569C60.2515 14.415 60.587 14.1284 60.587 13.5971C60.587 13.2056 60.4193 12.891 60.0837 12.6534C59.7622 12.4157 59.3427 12.2968 58.8254 12.2968C58.2662 12.2968 57.8048 12.4436 57.4413 12.7372C57.0918 13.0169 56.8681 13.4153 56.7702 13.9326L53.9601 13.3035C54.1138 12.3388 54.6241 11.5419 55.491 10.9127C56.3578 10.2836 57.4623 9.96902 58.8045 9.96902ZM57.8607 18.9658C58.6017 18.9658 59.2379 18.7141 59.7691 18.2108C60.3144 17.7075 60.587 17.1273 60.587 16.4702V16.1975C60.4193 16.3513 60.0977 16.4562 59.6223 16.5121L57.7978 16.7218C57.3924 16.7777 57.0708 16.9106 56.8331 17.1203C56.5955 17.316 56.4766 17.5677 56.4766 17.8753C56.4766 18.1968 56.6025 18.4625 56.8541 18.6722C57.1058 18.8679 57.4413 18.9658 57.8607 18.9658ZM76.8355 20.245L78.8278 10.1787H81.4911L79.1633 21H74.4657L72.7041 10.8918L70.9215 21H66.2239L63.8961 10.1787H66.5804L68.5727 20.2241L70.1456 10.1787H75.2417L76.8355 20.245ZM89.5165 9.96902C90.8587 9.96902 91.9701 10.5073 92.8509 11.5838C93.7317 12.6604 94.1721 13.9955 94.1721 15.5894C94.1721 17.1832 93.7317 18.5184 92.8509 19.5949C91.9701 20.6714 90.8587 21.2097 89.5165 21.2097C88.5658 21.2097 87.7409 20.9161 87.0419 20.3289C86.3568 19.7277 85.8535 18.9168 85.5319 17.8962V25.1943H82.7008V10.1787H85.5319V13.2825C85.8535 12.2619 86.3568 11.458 87.0419 10.8708C87.7409 10.2696 88.5658 9.96902 89.5165 9.96902ZM88.4889 18.6302C89.2578 18.6302 89.908 18.3436 90.4392 17.7704C90.9705 17.1832 91.2361 16.4562 91.2361 15.5894C91.2361 14.7365 90.9705 14.0235 90.4392 13.4503C89.908 12.8631 89.2578 12.5695 88.4889 12.5695C87.636 12.5695 86.93 12.8561 86.3708 13.4293C85.8115 14.0025 85.5319 14.7225 85.5319 15.5894C85.5319 16.4562 85.8115 17.1832 86.3708 17.7704C86.93 18.3436 87.636 18.6302 88.4889 18.6302ZM98.8439 21H96.0127V5.48113H98.8439V21ZM105.642 9.96902C107.012 9.96902 108.124 10.3255 108.977 11.0386C109.829 11.7516 110.256 12.7932 110.256 14.1633V21H107.425V18.3157C106.823 20.245 105.579 21.2097 103.692 21.2097C102.811 21.2097 102.056 20.9231 101.427 20.3499C100.798 19.7767 100.483 19.0287 100.483 18.1059C100.483 16.0787 101.874 14.9183 104.656 14.6247L106.418 14.4569C107.089 14.415 107.425 14.1284 107.425 13.5971C107.425 13.2056 107.257 12.891 106.921 12.6534C106.6 12.4157 106.18 12.2968 105.663 12.2968C105.104 12.2968 104.642 12.4436 104.279 12.7372C103.929 13.0169 103.706 13.4153 103.608 13.9326L100.798 13.3035C100.951 12.3388 101.462 11.5419 102.329 10.9127C103.195 10.2836 104.3 9.96902 105.642 9.96902ZM104.698 18.9658C105.439 18.9658 106.075 18.7141 106.607 18.2108C107.152 17.7075 107.425 17.1273 107.425 16.4702V16.1975C107.257 16.3513 106.935 16.4562 106.46 16.5121L104.635 16.7218C104.23 16.7777 103.908 16.9106 103.671 17.1203C103.433 17.316 103.314 17.5677 103.314 17.8753C103.314 18.1968 103.44 18.4625 103.692 18.6722C103.943 18.8679 104.279 18.9658 104.698 18.9658ZM116.62 20.245L119.661 10.1787H122.534L117.983 25.1943H115.11L116.39 21H114.104L110.79 10.1787H113.852L116.62 20.245Z" fill="white"/>
</svg>
